
<svg xmlns="http://www.w3.org/2000/svg" version="1.1" xmlns:xlink="http://www.w3.org/1999/xlink" preserveAspectRatio="none" x="0px" y="0px" width="1480px" height="500px" viewBox="0 0 1480 500">
<defs>
<filter id="Filter_1" x="-20%" y="-20%" width="140%" height="140%" color-interpolation-filters="sRGB">
<feColorMatrix in="SourceGraphic" type="matrix" values="1 0 0 0 0 0 1 0 0 0 0 0 1 0 0 0 0 0 0.5 0" result="result1"/>
</filter>

<g id="Diwali_version1_star_10_Layer0_0_FILL">
<path fill="#FFFFFF" stroke="none" d="
M 13.9 -13.6
Q 13.8 -13.15 13.7 -12.8 13 -9.35 12.65 -8.1 12.6 -8 12.55 -7.9 12.45 -7.5 12.35 -7.15 11.95 -5.3 11.4 -2.8 11.35 -2.6 11.3 -2.4 11.15 -2.1 11 -1.75 10.2 0.35 8.85 2.85 8.7 3.05 8.55 3.3 4.6 10.45 -3.05 13.95 -3.2 14.05 -3.4 14.15 -3.55 14.2 -3.7 14.25 -9.2 15.65 -10.95 16.1 -11.15 16.15 -11.35 16.2 -11.7 16.3 -11.75 16.35 -11.85 16.35 -11.95 16.4 -12.05 16.4 -12.15 16.45 -12.25 16.5 -12.35 16.55 -12.9 16.75 -12.9 17.2 -12.9 17.3 -12.9 17.35 -12.8 17.95 -11.75 18.05 -11.7 18.05 -11.65 18.05 -11.55 18.1 -11.2 18.2 -9.65 18.6 -3.7 20.15 -3.6 20.2 -3.5 20.25 4.6 23.8 8.75 31.3 8.8 31.3 8.85 31.35 8.85 31.4 8.85 31.45 10.5 34.65 11.35 37.15 11.35 37.2 11.4 37.35 11.65 38.2 12.75 42.35 12.75 42.4 12.75 42.45 12.75 42.55 12.75 42.65
L 13.95 47.85
Q 14 48 14.05 48.15 14.25 49.1 14.7 49.25 14.8 49.3 14.9 49.3
L 14.95 49.3
Q 15.65 49.25 15.95 47.9 15.95 47.8 15.95 47.7 16 47.6 16.05 47.5
L 17.15 42.45
Q 17.2 42.35 17.25 42.2 17.25 42.1 17.25 42.05 17.95 38.7 18.45 37.15 18.5 37.05 18.5 36.95
L 18.5 36.9
Q 19.35 34.45 20.85 31.45 20.9 31.35 20.95 31.3 21 31.2 21.05 31.1 25.25 23.65 33.5 20.15 33.65 20.05 33.8 20 37.55 18.55 40.95 18.15 41.2 18.1 41.4 18.05 41.5 18.05 41.6 18.05 42.35 17.95 42.55 17.6 42.65 17.5 42.7 17.35 42.7 17.3 42.7 17.2 42.7 17.15 42.7 17.1 42.7 16.9 42.6 16.7 42.55 16.65 42.5 16.65 42.35 16.55 42.1 16.45 42 16.4 41.95 16.35 41.75 16.3 41.55 16.25 37.95 15.95 33.9 14.4 33.85 14.4 33.8 14.4 33.6 14.3 33.45 14.25 25.1 10.55 20.9 2.95 20.9 2.9 20.9 2.85 19.3 0 18.5 -2.35 18.5 -2.5 18.45 -2.65 18.45 -2.7 18.45 -2.75 18.35 -2.95 17.15 -7.75 17.1 -7.9 17.05 -8.05 16.7 -9.45 15.9 -13.3 15.9 -13.4 15.85 -13.55 15.8 -13.75 15.75 -13.9 15.6 -14.45 15.4 -14.7 15.2 -14.85 14.9 -14.9 14.8 -14.9 14.7 -14.85 14.1 -14.7 13.9 -13.6 Z"/>
</g>

<g id="Diwali_version1_star_6_Layer0_0_FILL">
<path fill="#FFFFFF" stroke="none" d="
M 27.75 17
L 27.7 17
Q 27.65 16.95 27.6 16.9
L 27.55 16.9
Q 27.45 16.85 27.35 16.8
L 27.35 16.75
Q 27.25 16.75 27.15 16.75 25.45 16.6 23.6 15.85 23.5 15.8 23.4 15.75 19.6 14.05 17.7 10.55 17.7 10.5 17.7 10.45 16.95 9.2 16.6 8.05 16.6 8 16.6 7.95 16.5 7.85 15.95 5.6 15.95 5.55 15.95 5.5 15.75 4.85 15.35 3.1 15.35 3.05 15.35 3 15.35 2.9 15.35 2.85 15.25 2.65 15.2 2.5 15.1 2.35 15 2.3 14.95 2.3 14.9 2.3 14.65 2.3 14.55 2.65 14.5 2.75 14.45 2.95 14.1 4.4 13.95 5.15 13.95 5.2 13.95 5.25 13.9 5.4 13.85 5.55 13.65 6.35 13.35 7.45 13.35 7.55 13.35 7.65 13.3 7.85 13.25 8 12.9 9.05 12.15 10.35 12.1 10.45 12.05 10.55 10.2 14.05 6.5 15.75 6.4 15.8 6.3 15.85 6.25 15.85 6.2 15.85 3.5 16.55 2.8 16.75 2.6 16.8 2.55 16.8 2.5 16.8 2.45 16.85 2.4 16.85 2.4 16.9 2.3 16.9 2.25 16.9 2.2 16.9 2.15 16.9 2 17.05 2 17.2
L 2.1 17.45
Q 2.2 17.6 2.55 17.65 2.6 17.65 2.8 17.7 3.5 17.85 6.25 18.6 6.35 18.65 6.4 18.7 10.15 20.3 12.05 23.85
L 12.1 23.85
Q 12.1 23.9 12.1 23.95 12.85 25.35 13.25 26.45 13.25 26.5 13.25 26.55 13.35 26.75 13.9 28.85 13.9 28.95 13.9 29
L 14.45 31.4
Q 14.45 31.45 14.45 31.55 14.6 32.1 14.85 32.15
L 14.9 32.15
Q 15.2 32.15 15.4 31.75 15.4 31.7 15.4 31.65 15.4 31.6 15.4 31.5
L 16 29.1
Q 16 29.05 16 28.95 16.3 27.4 16.6 26.65 16.6 26.55 16.6 26.5 16.95 25.3 17.6 23.95 17.65 23.9 17.7 23.85 17.7 23.8 17.75 23.75 19.75 20.25 23.55 18.6 23.7 18.55 23.8 18.5 25.6 17.8 27.3 17.65 27.45 17.6 27.55 17.5 27.6 17.5 27.65 17.5 27.85 17.4 27.85 17.25 27.85 17.15 27.85 17.1 27.8 17.05 27.75 17 Z"/>
</g>

<g id="Diwali_version1_star_4_Layer0_0_FILL">
<path fill="#FFFFFF" stroke="none" d="
M 27.95 17.65
Q 28 17.65 28.1 17.65 28.55 17.5 28.55 17.2 28.55 17.15 28.55 17.1 28.5 17 28.3 16.85 28.25 16.8 28.15 16.75
L 28.05 16.75
Q 27.95 16.75 27.9 16.75 26.05 16.6 24.05 15.8 24 15.75 23.95 15.65 19.9 13.95 17.85 10.15 17.05 8.7 16.65 7.45
L 16.6 7.35
Q 16.5 7 16 4.85 16 4.8 16 4.75 15.8 4.05 15.35 2.15 15.35 2.1 15.35 2 15.2 1.55 14.95 1.5 14.9 1.5 14.8 1.5 14.55 1.6 14.45 2.2 14.05 4.05 13.8 4.75 13.8 4.8 13.8 4.85 13.5 5.85 13.2 7.35 13.2 7.4 13.15 7.45 12.75 8.7 11.95 10.15 9.95 13.95 5.9 15.75 5.7 15.8 5.55 15.85 2.25 16.7 1.95 16.75 1.8 16.8 1.7 16.9 1.65 16.9 1.6 16.9 1.55 16.9 1.5 16.9 1.3 17 1.3 17.2 1.3 17.5 1.7 17.6 1.8 17.65 1.9 17.65 2.2 17.7 5.7 18.7 5.75 18.7 5.85 18.7 9.85 20.4 11.9 24.2 11.9 24.25 11.95 24.3 12.8 25.8 13.2 27 13.25 27.2 13.85 29.6
L 14.45 32.3
Q 14.6 32.95 14.9 32.95 15.25 32.95 15.4 32.4 15.4 32.35 15.4 32.25
L 16.05 29.7
Q 16.05 29.65 16.05 29.55 16.4 27.95 16.65 27.15 16.65 27.05 16.65 27 17.1 25.75 17.75 24.3 17.85 24.25 17.9 24.2 19.95 20.45 23.95 18.7 24 18.65 24.05 18.65 26.1 17.85 27.95 17.65 Z"/>
</g>

<g id="Diwali_version1_star_9_Layer0_0_FILL">
<path fill="#FFFFFF" stroke="none" d="
M 15.75 -9.55
Q 15.75 -9.6 15.7 -9.75 15.7 -9.9 15.65 -10 15.55 -10.5 15.35 -10.7 15.15 -10.9 14.95 -10.9 14.85 -10.9 14.75 -10.9 14.25 -10.8 14.05 -9.85 13.95 -9.5 13.85 -9.15 13.25 -6.2 12.95 -5.05 12.9 -4.95 12.9 -4.85 12.8 -4.55 12.7 -4.25 12.35 -2.6 11.85 -0.45 11.8 -0.25 11.75 -0.1 11.65 0.2 11.55 0.5 10.85 2.35 9.6 4.55 9.5 4.75 9.35 5 5.9 11.25 -0.85 14.35 -1 14.45 -1.15 14.55 -1.3 14.55 -1.4 14.6 -6.3 15.85 -7.75 16.25 -8 16.3 -8.15 16.35 -8.45 16.45 -8.5 16.5 -8.6 16.5 -8.65 16.55 -8.75 16.55 -8.8 16.55 -8.9 16.6 -9 16.65 -9.45 16.8 -9.45 17.2
L -9.45 17.25
Q -9.45 17.35 -9.45 17.4 -9.35 17.85 -8.45 17.95
L -8.4 17.95
Q -8.3 18 -7.95 18.05 -6.6 18.45 -1.4 19.8 -1.3 19.85 -1.2 19.9 5.9 23 9.5 29.55 9.55 29.6 9.6 29.65 9.6 29.7 9.6 29.75 11.05 32.5 11.8 34.65 11.8 34.7 11.85 34.85 12.05 35.55 13 39.25
L 13 39.3
Q 13 39.4 13 39.5
L 14.1 44.05
Q 14.1 44.2 14.15 44.3 14.35 45.2 14.75 45.3 14.8 45.35 14.9 45.35
L 14.95 45.35
Q 15.55 45.3 15.8 44.15 15.8 44.1 15.8 44 15.85 43.9 15.9 43.8
L 16.9 39.4
Q 16.9 39.25 16.95 39.15
L 16.95 39.05
Q 17.6 36.1 18 34.75 18.05 34.65 18.05 34.55
L 18.05 34.5
Q 18.8 32.35 20.1 29.75 20.15 29.65 20.2 29.55 20.25 29.5 20.3 29.4 23.95 22.85 31.2 19.8 31.35 19.7 31.5 19.65 34.8 18.4 37.8 18 38 17.95 38.2 17.9 38.3 17.9 38.4 17.9 39 17.8 39.15 17.5 39.25 17.45 39.3 17.3 39.25 17.25 39.25 17.15 39.25 17.1 39.25 17.05 39.2 16.9 39.15 16.75 39.1 16.7 39.05 16.7 38.9 16.6 38.7 16.5 38.65 16.5 38.55 16.45 38.4 16.4 38.2 16.4 35.05 16.1 31.5 14.75
L 31.45 14.75
Q 31.25 14.65 31.15 14.6 23.85 11.35 20.15 4.7 20.15 4.65 20.15 4.6 18.8 2.1 18.05 0.05 18.05 -0.1 18 -0.2 18 -0.25 18 -0.3 17.9 -0.45 16.85 -4.7 16.85 -4.8 16.8 -4.95 16.5 -6.15 15.75 -9.55 Z"/>
</g>

<g id="Diwali_version1_star_11_Layer0_0_FILL">
<path fill="#FFFFFF" stroke="none" d="
M 15.95 -15.25
Q 15.95 -15.35 15.9 -15.5 15.7 -16.35 15.4 -16.7 15.2 -16.9 14.9 -16.9 14.1 -16.9 13.8 -15.5 12.9 -11.15 12.5 -9.65 12.45 -9.55 12.4 -9.45 11.9 -7.25 11.15 -4 11.1 -3.8 11.05 -3.6 10.1 -1.1 8.45 1.95 4.25 9.85 -4.15 13.75 -4.5 13.9 -4.85 14.05 -10.7 15.55 -12.55 16.05 -13.35 16.25 -13.45 16.3 -13.55 16.3 -13.65 16.35 -13.85 16.4 -14.05 16.5 -14.65 16.7 -14.65 17.2
L -14.65 17.35
Q -14.55 18 -13.45 18.1 -13.35 18.1 -12.85 18.25 -11.2 18.7 -4.85 20.35 -4.75 20.4 -4.65 20.45 3.95 24.2 8.35 32.15 8.4 32.25 8.45 32.35 10.25 35.75 11.15 38.4 11.25 38.8 12.6 43.95 12.6 44 12.6 44.05
L 13.9 49.8
Q 14.15 51.05 14.7 51.25 14.8 51.3 14.9 51.3 15.7 51.3 16 49.8 16 49.7 16 49.6
L 17.3 44.05
Q 17.35 43.9 17.4 43.75 18.15 40.1 18.65 38.4 18.7 38.25 18.75 38.1 19.65 35.5 21.25 32.35 21.35 32.15 21.45 31.95 25.9 24.05 34.65 20.35 34.8 20.25 35 20.2 39.2 18.55 43.05 18.1 43.15 18.1 43.25 18.1 44.3 17.95 44.45 17.4 44.45 17.3 44.45 17.2 44.45 17.15 44.45 17.1 44.45 16.8 44.25 16.6 44.1 16.5 43.85 16.4
L 43.65 16.3
Q 43.45 16.25 43.25 16.2 39.35 15.9 35 14.25 34.8 14.15 34.65 14.05 25.7 10.15 21.25 1.95 19.6 -1.1 18.75 -3.6 18.7 -3.8 18.65 -4 18.55 -4.2 17.3 -9.35 17.25 -9.5 17.2 -9.65 16.8 -11.1 15.95 -15.25 Z"/>
</g>

<g id="star_dots_0_Layer0_0_MEMBER_0_FILL">
<path fill="#FFFFFF" stroke="none" d="
M 128 28.85
Q 128 27.65 127.2 26.85 126.35 26 125.2 26 124 26 123.2 26.85 122.35 27.65 122.35 28.85 122.35 30 123.2 30.85 124 31.65 125.2 31.65 126.35 31.65 127.2 30.85 128 30 128 28.85 Z"/>
</g>

<g id="star_dots_0_Layer0_1_MEMBER_0_FILL">
<path fill="#FFFFFF" stroke="none" d="
M 70.5 71.1
Q 70.5 72.25 71.3 73.1 72.15 73.95 73.3 73.95 74.5 73.95 75.35 73.1 76.15 72.25 76.15 71.1 76.15 69.95 75.35 69.1 74.5 68.25 73.3 68.25 72.15 68.25 71.3 69.1 70.5 69.95 70.5 71.1 Z"/>
</g>

<g id="star_dots_0_Layer0_2_MEMBER_0_FILL">
<path fill="#FFFFFF" stroke="none" d="
M 55.9 26.2
Q 55.9 27 56.5 27.55 57.05 28.1 57.85 28.1 58.65 28.1 59.2 27.55 59.75 27 59.75 26.2 59.75 25.4 59.2 24.8 58.65 24.25 57.85 24.25 57.05 24.25 56.5 24.8 55.9 25.4 55.9 26.2 Z"/>
</g>

<g id="star_dots_0_Layer0_3_MEMBER_0_FILL">
<path fill="#FFFFFF" stroke="none" d="
M 128 28.85
Q 128 27.65 127.2 26.85 126.35 26 125.2 26 124 26 123.2 26.85 122.35 27.65 122.35 28.85 122.35 30 123.2 30.85 124 31.65 125.2 31.65 126.35 31.65 127.2 30.85 128 30 128 28.85 Z"/>
</g>

<g id="star_dots_0_Layer0_4_MEMBER_0_FILL">
<path fill="#FFFFFF" stroke="none" d="
M 70.5 71.1
Q 70.5 72.25 71.3 73.1 72.15 73.95 73.3 73.95 74.5 73.95 75.35 73.1 76.15 72.25 76.15 71.1 76.15 69.95 75.35 69.1 74.5 68.25 73.3 68.25 72.15 68.25 71.3 69.1 70.5 69.95 70.5 71.1 Z"/>
</g>

<g id="star_dots_0_Layer0_5_MEMBER_0_FILL">
<path fill="#FFFFFF" stroke="none" d="
M 128 28.85
Q 128 27.65 127.2 26.85 126.35 26 125.2 26 124 26 123.2 26.85 122.35 27.65 122.35 28.85 122.35 30 123.2 30.85 124 31.65 125.2 31.65 126.35 31.65 127.2 30.85 128 30 128 28.85 Z"/>
</g>

<g id="star_dots_0_Layer0_6_MEMBER_0_FILL">
<path fill="#FFFFFF" stroke="none" d="
M 55.9 26.2
Q 55.9 27 56.5 27.55 57.05 28.1 57.85 28.1 58.65 28.1 59.2 27.55 59.75 27 59.75 26.2 59.75 25.4 59.2 24.8 58.65 24.25 57.85 24.25 57.05 24.25 56.5 24.8 55.9 25.4 55.9 26.2 Z"/>
</g>

<g id="star_dots_0_Layer0_7_MEMBER_0_FILL">
<path fill="#FFFFFF" stroke="none" d="
M 55.9 26.2
Q 55.9 27 56.5 27.55 57.05 28.1 57.85 28.1 58.65 28.1 59.2 27.55 59.75 27 59.75 26.2 59.75 25.4 59.2 24.8 58.65 24.25 57.85 24.25 57.05 24.25 56.5 24.8 55.9 25.4 55.9 26.2 Z"/>
</g>

<g id="star_dots_0_Layer0_8_MEMBER_0_FILL">
<path fill="#FFFFFF" stroke="none" d="
M 128 28.85
Q 128 27.65 127.2 26.85 126.35 26 125.2 26 124 26 123.2 26.85 122.35 27.65 122.35 28.85 122.35 30 123.2 30.85 124 31.65 125.2 31.65 126.35 31.65 127.2 30.85 128 30 128 28.85 Z"/>
</g>

<g id="star_dots_0_Layer0_9_MEMBER_0_FILL">
<path fill="#FFFFFF" stroke="none" d="
M 55.9 26.2
Q 55.9 27 56.5 27.55 57.05 28.1 57.85 28.1 58.65 28.1 59.2 27.55 59.75 27 59.75 26.2 59.75 25.4 59.2 24.8 58.65 24.25 57.85 24.25 57.05 24.25 56.5 24.8 55.9 25.4 55.9 26.2 Z"/>
</g>
</defs>

<g transform="matrix( 1, 0, 0, 1, 49.55,32.8) ">
<g transform="matrix( 1, 0, 0, 1, 795.05,0) ">
<g transform="matrix( 1, 0, 0, 1, 0,0) ">
<use filter="url(#Filter_1)" xlink:href="#Diwali_version1_star_10_Layer0_0_FILL"/>
</g>
</g>

<g transform="matrix( 0.9999847412109375, 0, 0, 0.9999847412109375, 521.3,154.3) ">
<g transform="matrix( 1, 0, 0, 1, 0,0) ">
<use filter="url(#Filter_1)" xlink:href="#Diwali_version1_star_6_Layer0_0_FILL"/>
</g>
</g>

<g transform="matrix( 1, 0, 0, 1, 238.15,93.3) ">
<g transform="matrix( 1, 0, 0, 1, 0,0) ">
<use filter="url(#Filter_1)" xlink:href="#Diwali_version1_star_10_Layer0_0_FILL"/>
</g>
</g>

<g transform="matrix( 1, 0, 0, 1, 0,278.5) ">
<g transform="matrix( 1, 0, 0, 1, 0,0) ">
<use filter="url(#Filter_1)" xlink:href="#Diwali_version1_star_4_Layer0_0_FILL"/>
</g>
</g>

<g transform="matrix( 1, 0, 0, 1, 529.5,392.65) ">
<g transform="matrix( 1, 0, 0, 1, 0,0) ">
<use filter="url(#Filter_1)" xlink:href="#Diwali_version1_star_9_Layer0_0_FILL"/>
</g>
</g>

<g transform="matrix( 1, 0, 0, 1, 841.7,173.95) ">
<g transform="matrix( 1, 0, 0, 1, 0,0) ">
<use filter="url(#Filter_1)" xlink:href="#Diwali_version1_star_4_Layer0_0_FILL"/>
</g>
</g>

<g transform="matrix( 1, 0, 0, 1, 1092.75,262.35) ">
<g transform="matrix( 1, 0, 0, 1, 0,0) ">
<use filter="url(#Filter_1)" xlink:href="#Diwali_version1_star_11_Layer0_0_FILL"/>
</g>
</g>

<g transform="matrix( 1, 0, 0, 1, 1379.25,291.3) ">
<g transform="matrix( 1, 0, 0, 1, 0,0) ">
<use filter="url(#Filter_1)" xlink:href="#Diwali_version1_star_10_Layer0_0_FILL"/>
</g>
</g>
</g>

<g transform="matrix( 1, 0, 0, 1, 42.6,39.2) ">
<g transform="matrix( 1.7998809814453125, 0, 0, 1.7998809814453125, 357.9,-46.8) ">
<use filter="url(#Filter_1)" xlink:href="#star_dots_0_Layer0_0_MEMBER_0_FILL"/>
</g>

<g transform="matrix( 0.999969482421875, 0, 0, 0.999969482421875, -70.4,125.9) ">
<use filter="url(#Filter_1)" xlink:href="#star_dots_0_Layer0_1_MEMBER_0_FILL"/>
</g>

<g transform="matrix( 2.3065185546875, 0, 0, 2.3065185546875, 255.05,152.65) ">
<use filter="url(#Filter_1)" xlink:href="#star_dots_0_Layer0_2_MEMBER_0_FILL"/>
</g>

<g transform="matrix( 1.999908447265625, 0, 0, 1.999908447265625, -81.65,258.1) ">
<use filter="url(#Filter_1)" xlink:href="#star_dots_0_Layer0_3_MEMBER_0_FILL"/>
</g>

<g transform="matrix( 0.999969482421875, 0, 0, 0.999969482421875, 407.4,231.3) ">
<use filter="url(#Filter_1)" xlink:href="#star_dots_0_Layer0_4_MEMBER_0_FILL"/>
</g>

<g transform="matrix( 1.1998748779296875, 0, 0, 1.1998748779296875, 630.05,262.55) ">
<use filter="url(#Filter_1)" xlink:href="#star_dots_0_Layer0_5_MEMBER_0_FILL"/>
</g>

<g transform="matrix( 2.3065185546875, 0, 0, 2.3065185546875, 989.75,35.95) ">
<use filter="url(#Filter_1)" xlink:href="#star_dots_0_Layer0_6_MEMBER_0_FILL"/>
</g>

<g transform="matrix( 2.306427001953125, 0, 0, 2.306427001953125, 536.85,154.15) ">
<use filter="url(#Filter_1)" xlink:href="#star_dots_0_Layer0_7_MEMBER_0_FILL"/>
</g>

<g transform="matrix( 1.199859619140625, 0, 0, 1.199859619140625, 1104.85,298.75) ">
<use filter="url(#Filter_1)" xlink:href="#star_dots_0_Layer0_8_MEMBER_0_FILL"/>
</g>

<g transform="matrix( 2.9993438720703125, 0, 0, 2.9993438720703125, 746.45,285.7) ">
<use filter="url(#Filter_1)" xlink:href="#star_dots_0_Layer0_9_MEMBER_0_FILL"/>
</g>
</g>
</svg>
