
<svg xmlns="http://www.w3.org/2000/svg" version="1.1" xmlns:xlink="http://www.w3.org/1999/xlink" preserveAspectRatio="none" x="0px" y="0px" width="300px" height="300px" viewBox="0 0 300 300">
<defs>
<g id="diya_alone_0_Layer0_0_MEMBER_0_MEMBER_0_FILL">
<path fill="#F5C955" stroke="none" d="
M 611.9 -114.8
Q 622.05 -122.75 622.05 -134 622.05 -145.25 611.9 -153.2 601.7 -161.2 587.3 -161.2 572.9 -161.2 562.7 -153.2 552.5 -145.25 552.5 -134 552.5 -122.75 562.7 -114.8 572.9 -106.85 587.3 -106.85 601.7 -106.85 611.9 -114.8 Z"/>
</g>

<g id="diya_alone_0_Layer0_0_MEMBER_1_MEMBER_0_FILL">
<path fill="#C8732D" stroke="none" d="
M 610.05 -116.45
Q 619.45 -123.7 619.45 -134 619.45 -144.3 610.05 -151.6 600.65 -158.85 587.35 -158.85 574.05 -158.85 564.7 -151.6 555.3 -144.3 555.3 -134 555.3 -123.7 564.7 -116.45 574.1 -109.2 587.35 -109.2 600.65 -109.2 610.05 -116.45 Z"/>
</g>

<g id="diya_alone_0_Layer0_0_MEMBER_2_MEMBER_0_FILL">
<path fill="#DD8A32" stroke="none" d="
M 615.35 -118
Q 626.15 -129.55 620.1 -143.05 619 -145.45 617.6 -147.45 614.4 -145.6 608.7 -144.45 597.35 -142.15 585 -145.6 578.45 -147.45 571.8 -150.95 569.9 -152 561.2 -157.2 549 -164.55 539.15 -164.55 527.95 -164.55 519.3 -161.55
L 512.85 -158.6 515.6 -158.5
Q 519.05 -158.15 522.6 -156.85 532.6 -153.15 540.25 -143.1 541.3 -141.75 549.25 -130.3 554.55 -122.75 558.6 -118.65 570.25 -106.8 587.9 -106.8 604.85 -106.8 615.35 -118 Z"/>
</g>

<g id="diya_alone_0_Layer0_0_MEMBER_3_MEMBER_0_FILL">
<path fill="#EEAD3C" stroke="none" d="
M 568.25 -146.95
Q 584.45 -137.7 595.2 -137.7 607.2 -137.7 614.85 -140.35 618.65 -141.7 620.05 -143.05 619.05 -145.35 617.6 -147.45 614.4 -145.6 608.7 -144.45 597.35 -142.15 585 -145.6 578.45 -147.45 571.8 -150.95 569.9 -152 561.2 -157.2 549 -164.55 539.15 -164.55 527.95 -164.55 519.3 -161.55
L 512.85 -158.6 515.6 -158.5
Q 519.05 -158.15 522.6 -156.85
L 529.7 -158.4
Q 538.1 -159.65 544.3 -158.45 549.2 -157.5 555.95 -153.95 556.5 -153.7 568.25 -146.95 Z"/>
</g>

<g id="diya_alone_0_Layer0_0_MEMBER_4_MEMBER_0_FILL">
<path fill="#F7D675" stroke="none" d="
M 608.7 -144.45
Q 614.4 -145.6 617.6 -147.45
L 615.95 -149.35
Q 613.15 -147.7 607.9 -146.7 597.35 -144.8 585 -148.25 578.45 -150.1 571.8 -153.65 570 -154.65 561.2 -159.95 549 -167.35 539.15 -167.2 525.3 -167 516 -162.75 513.05 -161.4 510.95 -159.85
L 509.45 -158.55 512.85 -158.6 519.3 -161.55
Q 527.95 -164.55 539.15 -164.55 549 -164.55 561.2 -157.2 569.9 -152 571.8 -150.95 578.45 -147.45 585 -145.6 597.35 -142.15 608.7 -144.45 Z"/>
</g>

<g id="diya_alone_0_Layer0_0_MEMBER_5_MEMBER_0_MEMBER_0_FILL">
<path fill="#F7D675" stroke="none" d="
M 523.6 -159.6
Q 523.6 -159.95 523.35 -160.25 523.1 -160.5 522.7 -160.5 522.35 -160.5 522.05 -160.25 521.8 -159.95 521.8 -159.6 521.8 -159.2 522.05 -158.95 522.35 -158.7 522.7 -158.7 523.1 -158.7 523.35 -158.95 523.6 -159.2 523.6 -159.6 Z"/>
</g>

<g id="diya_alone_0_Layer0_0_MEMBER_5_MEMBER_1_MEMBER_0_FILL">
<path fill="#F7D675" stroke="none" d="
M 530.1 -160.9
Q 530.1 -161.25 529.85 -161.55 529.6 -161.8 529.2 -161.8 528.35 -161.8 528.35 -160.9 528.35 -160 529.2 -160 529.6 -160 529.85 -160.25 530.1 -160.5 530.1 -160.9 Z"/>
</g>

<g id="diya_alone_0_Layer0_0_MEMBER_5_MEMBER_2_MEMBER_0_FILL">
<path fill="#F7D675" stroke="none" d="
M 536.6 -161.45
Q 536.6 -161.8 536.35 -162.1 536.1 -162.35 535.75 -162.35 535.4 -162.35 535.1 -162.1 534.85 -161.8 534.85 -161.45 534.85 -161.1 535.1 -160.85 535.4 -160.6 535.75 -160.6 536.1 -160.6 536.35 -160.85 536.6 -161.1 536.6 -161.45 Z"/>
</g>

<g id="diya_alone_0_Layer0_0_MEMBER_5_MEMBER_3_MEMBER_0_FILL">
<path fill="#F7D675" stroke="none" d="
M 543.15 -161.45
Q 543.15 -161.8 542.9 -162.1 542.65 -162.35 542.25 -162.35 541.9 -162.35 541.6 -162.1 541.35 -161.8 541.35 -161.45 541.35 -161.1 541.6 -160.85 541.9 -160.6 542.25 -160.6 542.6 -160.6 542.9 -160.85 543.15 -161.1 543.15 -161.45 Z"/>
</g>

<g id="diya_alone_0_Layer0_0_MEMBER_5_MEMBER_4_MEMBER_0_FILL">
<path fill="#F7D675" stroke="none" d="
M 549.65 -160.15
Q 549.65 -160.5 549.4 -160.8 549.15 -161.05 548.8 -161.05 548.45 -161.05 548.15 -160.8 547.9 -160.5 547.9 -160.15 547.9 -159.8 548.15 -159.55 548.45 -159.3 548.8 -159.3 549.15 -159.3 549.4 -159.55 549.65 -159.8 549.65 -160.15 Z"/>
</g>

<g id="diya_alone_0_Layer0_0_MEMBER_5_MEMBER_5_MEMBER_0_FILL">
<path fill="#F7D675" stroke="none" d="
M 556.2 -157.55
Q 556.2 -157.9 555.95 -158.2 555.7 -158.45 555.3 -158.45 554.95 -158.45 554.65 -158.2 554.4 -157.9 554.4 -157.55 554.4 -157.2 554.65 -156.95 554.95 -156.7 555.3 -156.7 555.65 -156.7 555.95 -156.95 556.2 -157.2 556.2 -157.55 Z"/>
</g>

<g id="diya_alone_0_Layer0_0_MEMBER_5_MEMBER_6_MEMBER_0_FILL">
<path fill="#F7D675" stroke="none" d="
M 562.7 -153.9
Q 562.7 -154.25 562.45 -154.55 562.2 -154.8 561.8 -154.8 561.45 -154.8 561.2 -154.55 560.95 -154.25 560.95 -153.9 560.95 -153.55 561.2 -153.25 561.45 -153 561.8 -153 562.2 -153 562.45 -153.25 562.7 -153.5 562.7 -153.9 Z"/>
</g>

<g id="diya_alone_0_Layer0_0_MEMBER_5_MEMBER_7_MEMBER_0_FILL">
<path fill="#F7D675" stroke="none" d="
M 569.2 -150.05
Q 569.2 -150.95 568.35 -150.95 568 -150.95 567.7 -150.7 567.45 -150.4 567.45 -150.05 567.45 -149.65 567.7 -149.4 568 -149.15 568.35 -149.15 569.2 -149.15 569.2 -150.05 Z"/>
</g>

<g id="diya_alone_0_Layer0_0_MEMBER_5_MEMBER_8_MEMBER_0_FILL">
<path fill="#F7D675" stroke="none" d="
M 575.75 -146.25
Q 575.75 -146.6 575.5 -146.9 575.25 -147.15 574.85 -147.15 574.5 -147.15 574.2 -146.9 573.95 -146.6 573.95 -146.25 573.95 -145.9 574.2 -145.65 574.5 -145.4 574.85 -145.4 575.2 -145.4 575.5 -145.65 575.75 -145.9 575.75 -146.25 Z"/>
</g>

<g id="diya_alone_0_Layer0_0_MEMBER_5_MEMBER_9_MEMBER_0_FILL">
<path fill="#F7D675" stroke="none" d="
M 582.25 -143.55
Q 582.25 -143.9 582 -144.15 581.75 -144.4 581.4 -144.4 581.05 -144.4 580.75 -144.15 580.5 -143.9 580.5 -143.55 580.5 -143.15 580.75 -142.9 581.05 -142.65 581.4 -142.65 581.75 -142.65 582 -142.9 582.25 -143.2 582.25 -143.55 Z"/>
</g>

<g id="diya_alone_0_Layer0_0_MEMBER_5_MEMBER_10_MEMBER_0_FILL">
<path fill="#F7D675" stroke="none" d="
M 588.8 -141.55
Q 588.8 -141.9 588.55 -142.2 588.3 -142.45 587.9 -142.45 587.55 -142.45 587.25 -142.2 587 -141.9 587 -141.55 587 -141.15 587.25 -140.9 587.55 -140.65 587.9 -140.65 588.3 -140.65 588.55 -140.9 588.8 -141.15 588.8 -141.55 Z"/>
</g>

<g id="diya_alone_0_Layer0_0_MEMBER_5_MEMBER_11_MEMBER_0_FILL">
<path fill="#F7D675" stroke="none" d="
M 595.3 -140.95
Q 595.3 -141.3 595.05 -141.6 594.8 -141.85 594.4 -141.85 594.05 -141.85 593.8 -141.6 593.55 -141.3 593.55 -140.95 593.55 -140.6 593.8 -140.35 594.05 -140.1 594.4 -140.1 594.75 -140.1 595.05 -140.35 595.3 -140.6 595.3 -140.95 Z"/>
</g>

<g id="diya_alone_0_Layer0_0_MEMBER_5_MEMBER_12_MEMBER_0_FILL">
<path fill="#F7D675" stroke="none" d="
M 601.85 -140.95
Q 601.85 -141.3 601.6 -141.6 601.35 -141.85 600.95 -141.85 600.6 -141.85 600.3 -141.6 600.05 -141.3 600.05 -140.95 600.05 -140.6 600.3 -140.35 600.6 -140.1 600.95 -140.1 601.3 -140.1 601.6 -140.35 601.85 -140.6 601.85 -140.95 Z"/>
</g>

<g id="diya_alone_0_Layer0_0_MEMBER_5_MEMBER_13_MEMBER_0_FILL">
<path fill="#F7D675" stroke="none" d="
M 607.45 -142.45
Q 607.1 -142.45 606.8 -142.2 606.55 -141.9 606.55 -141.55 606.55 -141.15 606.8 -140.9 607.1 -140.65 607.45 -140.65 607.85 -140.65 608.1 -140.9 608.35 -141.15 608.35 -141.55 608.35 -141.9 608.1 -142.2 607.85 -142.45 607.45 -142.45 Z"/>
</g>

<g id="diya_alone_0_Layer0_0_MEMBER_5_MEMBER_14_MEMBER_0_FILL">
<path fill="#F7D675" stroke="none" d="
M 614.85 -143.3
Q 614.85 -144.15 614 -144.15 613.1 -144.15 613.1 -143.3 613.1 -142.9 613.35 -142.65 613.65 -142.4 614 -142.4 614.35 -142.4 614.6 -142.65 614.85 -142.95 614.85 -143.3 Z"/>
</g>

<g id="Mask_FlashAICB_0_art__Clip_Group__0_2_MASK_0_FILL">
<path fill="#FFFFFF" stroke="none" d="
M 104.7 17.1
Q 101.5 18.95 95.8 20.15 84.45 22.45 72.1 18.95 65.55 17.1 58.9 13.6 57 12.55 48.3 7.35 36.1 0 26.25 0 15.05 0 6.4 3 2.1 4.5 0 6 3.65 5.65 8.9 7.4 19.35 10.95 27.4 21.5 28.4 22.8 36.4 34.25 41.65 41.85 45.7 45.95 57.35 57.75 75 57.75 83.75 57.75 91.6 54.2 99.2 50.75 103.9 44.9 108.75 38.85 109.2 31.85 109.65 24.3 104.7 17.1 Z"/>
</g>

<g id="FlashAICB_0_art__Clip_Group__0_Layer2_0_MEMBER_0_MEMBER_0_FILL">
<path fill="#F9E29D" stroke="none" d="
M 70.45 50.65
Q 68.5 52.65 68.55 55.4 68.6 58.15 70.6 60.05 72.55 62 75.3 61.95 78.05 61.9 80 59.95 81.9 57.95 81.85 55.2 81.8 52.45 79.85 50.5 77.9 48.6 75.1 48.65 72.35 48.7 70.45 50.65 Z"/>
</g>

<g id="FlashAICB_0_art__Clip_Group__0_Layer2_0_MEMBER_1_MEMBER_0_FILL">
<path fill="#F9E29D" stroke="none" d="
M 76.8 40.6
Q 76.75 38.15 76.15 35.9 75.65 33.95 75.35 33.95 75 33.95 74.55 35.9 74 38.15 74.05 40.65 74.1 43.4 74.5 45.3 74.95 47.25 75.5 47.25 76.1 47.25 76.45 45.3 76.85 43.35 76.8 40.6 Z"/>
</g>

<g id="FlashAICB_0_art__Clip_Group__0_Layer2_0_MEMBER_2_MEMBER_0_FILL">
<path fill="#F9E29D" stroke="none" d="
M 66.45 43.55
Q 64.9 41.6 63.1 40.2 61.5 38.95 61.25 39.15 61 39.35 61.8 41.2 62.75 43.3 64.25 45.25 66 47.45 67.5 48.7 69 49.95 69.45 49.6 69.9 49.25 69 47.5 68.15 45.75 66.45 43.55 Z"/>
</g>

<g id="FlashAICB_0_art__Clip_Group__0_Layer2_0_MEMBER_3_MEMBER_0_FILL">
<path fill="#F5C955" stroke="none" d="
M 71.3 42.6
Q 70.55 40.9 69.45 39.5 68.5 38.3 68.3 38.4 68.1 38.45 68.35 39.95 68.65 41.75 69.4 43.45 70.2 45.35 71.1 46.6 71.95 47.8 72.35 47.65 72.75 47.45 72.45 46 72.15 44.55 71.3 42.6 Z"/>
</g>

<g id="FlashAICB_0_art__Clip_Group__0_Layer2_0_MEMBER_4_MEMBER_0_FILL">
<path fill="#F5C955" stroke="none" d="
M 63.9 48.8
Q 62.35 47.75 60.7 47.15 59.25 46.65 59.1 46.85 59 47.05 60.05 48.2 61.2 49.5 62.75 50.55 64.55 51.7 65.9 52.25 67.35 52.8 67.55 52.45 67.8 52.1 66.7 51 65.65 49.95 63.9 48.8 Z"/>
</g>

<g id="FlashAICB_0_art__Clip_Group__0_Layer2_0_MEMBER_5_MEMBER_0_FILL">
<path fill="#F9E29D" stroke="none" d="
M 87.55 39.85
Q 85.8 41.3 84.3 43.3 82.65 45.5 81.85 47.3 81 49.1 81.45 49.45 81.9 49.8 83.4 48.45 84.9 47.1 86.5 44.9 87.95 42.95 88.85 40.8 89.6 38.95 89.35 38.75 89.1 38.55 87.55 39.85 Z"/>
</g>

<g id="FlashAICB_0_art__Clip_Group__0_Layer2_0_MEMBER_6_MEMBER_0_FILL">
<path fill="#F5C955" stroke="none" d="
M 82.3 38.2
Q 82.05 38.1 81.15 39.35 80.1 40.75 79.4 42.5 78.6 44.4 78.35 45.9 78.1 47.4 78.5 47.55 78.9 47.7 79.7 46.45 80.55 45.15 81.35 43.25 82.05 41.55 82.3 39.75 82.5 38.25 82.3 38.2 Z"/>
</g>

<g id="FlashAICB_0_art__Clip_Group__0_Layer2_0_MEMBER_7_MEMBER_0_FILL">
<path fill="#F5C955" stroke="none" d="
M 90.15 46.75
Q 88.5 47.4 86.95 48.45 85.25 49.65 84.25 50.75 83.2 51.9 83.45 52.25 83.7 52.6 85.05 52 86.5 51.35 88.15 50.15 89.7 49.1 90.85 47.75 91.85 46.6 91.7 46.4 91.55 46.2 90.15 46.75 Z"/>
</g>

<g id="FlashAICB_0_art__Clip_Group__0_Layer2_1_MEMBER_0_MEMBER_0_FILL">
<path fill="#C8732D" stroke="none" d="
M 99.25 36.15
Q 98.65 35.75 97.7 34.55 96.45 32.95 95.4 32.15 93.6 30.85 90.9 30.35 89.25 30.05 87.55 30.6 86.2 31.25 86.15 31.25 85.8 31.55 86.05 31.9 86.25 32.3 86.65 32
L 87.85 31.45
Q 89.35 30.95 90.75 31.25 93.25 31.7 94.85 32.9 95.75 33.55 97 35.1 98 36.4 98.75 36.9 99.9 37.7 101.6 37.75
L 101.75 37.75
Q 105.05 37.75 108.6 34.45 110.3 32.85 111.45 31.15 111.7 30.8 111.3 30.5 110.95 30.3 110.7 30.65 109.6 32.25 107.95 33.8 104.65 36.9 101.6 36.85 100.2 36.8 99.25 36.15 Z"/>
</g>

<g id="FlashAICB_0_art__Clip_Group__0_Layer2_1_MEMBER_1_MEMBER_0_FILL">
<path fill="#C8732D" stroke="none" d="
M 99.55 42.9
Q 99.7 43.15 99.95 43.15
L 100.15 43.05
Q 100.25 43 102.2 41.4 104.2 39.3 104.75 36.9 104.85 36.45 104.45 36.35 104 36.25 103.9 36.7 103.4 38.9 101.5 40.8 99.75 42.3 99.7 42.3 99.35 42.55 99.55 42.9 Z"/>
</g>

<g id="FlashAICB_0_art__Clip_Group__0_Layer2_1_MEMBER_2_MEMBER_0_FILL">
<path fill="#C8732D" stroke="none" d="
M 95.55 33.35
Q 95.8 33.35 95.8 33.15 95.8 32.9 95.6 32.9 93.95 32.85 92.9 33.55 92 34.1 91.75 35.05 91.55 35.75 91.75 36.35 92 37 92.5 37.3 93.1 37.55 93.45 37.55 94.2 37.55 94.55 36.95 95.05 36.2 94.35 35.65 93.85 35.3 93.45 35.7 93.3 35.85 93.4 36 93.55 36.15 93.7 36.05 93.75 36.05 94.1 36 94.4 36.25 94.2 36.7 93.7 37.4 92.75 36.9 91.8 36.4 92.15 35.15 92.8 33.25 95.55 33.35 Z"/>
</g>

<g id="FlashAICB_0_art__Clip_Group__0_Layer2_1_MEMBER_3_MEMBER_0_FILL">
<path fill="#C8732D" stroke="none" d="
M 101.75 32
Q 101.8 32.05 103.2 33 104.9 33.95 106.85 33.95 107.85 33.95 109.3 33.55 109.7 33.45 109.6 33 109.4 32.5 109.05 32.7 106.55 33.45 104.25 32.55 102.8 31.95 102.4 31.35 102.05 31.1 101.75 31.4 101.45 31.7 101.75 32 Z"/>
</g>

<g id="FlashAICB_0_art__Clip_Group__0_Layer2_1_MEMBER_4_MEMBER_0_MEMBER_0_FILL">
<path fill="#F5C955" stroke="none" d="
M 86 35.85
Q 86.6 35 86.85 34.15 87.25 32.45 86.4 32.2 85.55 31.9 85.05 33.65 84.8 34.5 84.9 35.6 85 36.55 85.2 36.6 85.4 36.65 86 35.85 Z"/>
</g>

<g id="FlashAICB_0_art__Clip_Group__0_Layer2_1_MEMBER_4_MEMBER_1_MEMBER_0_FILL">
<path fill="#F5C955" stroke="none" d="
M 83.7 30.15
Q 82.8 30.15 81.8 30.5 80.9 30.8 80.9 31 80.85 31.2 81.8 31.6 82.8 32 83.65 32 85.45 32.05 85.45 31.15 85.45 30.2 83.7 30.15 Z"/>
</g>

<g id="FlashAICB_0_art__Clip_Group__0_Layer2_1_MEMBER_4_MEMBER_2_MEMBER_0_FILL">
<path fill="#FCEFC8" stroke="none" d="
M 84.25 31.65
Q 83.5 32.25 82.9 33.2 82.35 34.05 82.5 34.25 82.65 34.45 83.65 34.15 84.7 33.8 85.45 33.2 86.95 32.05 86.35 31.25 85.7 30.55 84.25 31.65 Z"/>
</g>

<g id="FlashAICB_0_art__Clip_Group__0_Layer2_1_MEMBER_5_MEMBER_0_MEMBER_0_FILL">
<path fill="#F5C955" stroke="none" d="
M 97.7 30.85
Q 98.45 31.45 99.2 31.7 100.8 32.2 101.05 31.4 101.3 30.6 99.75 30.1 99 29.85 98 29.9 97.1 29.95 97.05 30.1 96.95 30.25 97.7 30.85 Z"/>
</g>

<g id="FlashAICB_0_art__Clip_Group__0_Layer2_1_MEMBER_5_MEMBER_1_MEMBER_0_FILL">
<path fill="#F5C955" stroke="none" d="
M 103 28.95
Q 103.05 28.15 102.8 27.2 102.5 26.35 102.3 26.35 102.15 26.3 101.75 27.15 101.35 28.05 101.3 28.85 101.25 30.45 102.05 30.55 102.95 30.55 103 28.95 Z"/>
</g>

<g id="FlashAICB_0_art__Clip_Group__0_Layer2_1_MEMBER_5_MEMBER_2_MEMBER_0_FILL">
<path fill="#FCEFC8" stroke="none" d="
M 101.6 29.4
Q 101.1 28.7 100.25 28.1 99.4 27.55 99.25 27.7 99.1 27.85 99.35 28.75 99.65 29.75 100.15 30.45 101.15 31.95 101.9 31.35 102.65 30.8 101.6 29.4 Z"/>
</g>

<g id="FlashAICB_0_art__Clip_Group__0_Layer2_1_MEMBER_6_MEMBER_0_MEMBER_0_FILL">
<path fill="#F5C955" stroke="none" d="
M 100 46.7
Q 100.45 45.85 100.6 45.05 100.9 43.5 100 43.3 99.2 43.2 98.9 44.8 98.8 45.6 99 46.55 99.2 47.45 99.35 47.45 99.55 47.5 100 46.7 Z"/>
</g>

<g id="FlashAICB_0_art__Clip_Group__0_Layer2_1_MEMBER_6_MEMBER_1_MEMBER_0_FILL">
<path fill="#F5C955" stroke="none" d="
M 97.3 41.75
Q 96.5 41.8 95.6 42.25 94.8 42.65 94.8 42.85 94.85 43.05 95.7 43.25 96.65 43.5 97.45 43.45 99.1 43.3 99 42.45 98.9 41.6 97.3 41.75 Z"/>
</g>

<g id="FlashAICB_0_art__Clip_Group__0_Layer2_1_MEMBER_6_MEMBER_2_MEMBER_0_FILL">
<path fill="#FCEFC8" stroke="none" d="
M 97.95 43.05
Q 97.3 43.7 96.9 44.6 96.5 45.5 96.65 45.65 96.8 45.8 97.65 45.4 98.65 44.95 99.25 44.35 100.5 43.15 99.85 42.5 99.2 41.85 97.95 43.05 Z"/>
</g>

<g id="FlashAICB_0_art__Clip_Group__0_Layer2_2_MEMBER_0_MEMBER_0_FILL">
<path fill="#C8732D" stroke="none" d="
M 36.55 16.3
Q 37.25 15.55 37.3 14.6 37.3 12.95 36 12.6 35.25 12.4 34.75 12.65 34.25 12.9 34.1 13.4 33.75 14.25 34.6 14.6 35.05 14.8 35.5 14.35 35.6 14.15 35.45 14.05 35.3 13.9 35.1 14.05 35.1 14.3 34.75 14.2 34.4 14 34.5 13.55 34.8 12.7 35.9 13 36.85 13.25 36.85 14.55 36.85 15.25 36.4 15.85 35.65 16.8 33.95 17.15 33.7 17.15 33.8 17.4 33.8 17.55 34 17.55
L 34.05 17.55
Q 35.65 17.25 36.55 16.3 Z"/>
</g>

<g id="FlashAICB_0_art__Clip_Group__0_Layer2_2_MEMBER_1_MEMBER_0_FILL">
<path fill="#C8732D" stroke="none" d="
M 46.45 22.25
Q 47.1 23.4 47.05 24.65 46.9 26.75 45.05 27.25 44.65 27.35 44.75 27.8 44.85 28.15 45.2 28.15
L 45.3 28.1
Q 46.45 27.8 47.15 26.9 47.9 26 47.95 24.7 48.05 23.15 47.25 21.8 46.4 20.4 45.15 19.9 44.75 19.75 44.55 20.15 44.4 20.55 44.8 20.75 45.8 21.1 46.45 22.25 Z"/>
</g>

<g id="FlashAICB_0_art__Clip_Group__0_Layer2_2_MEMBER_2_MEMBER_0_FILL">
<path fill="#C8732D" stroke="none" d="
M 47.7 39.05
Q 47.45 39.05 47.45 39.25 47.4 39.4 47.6 39.5 49.25 39.9 50.35 40.8 51.6 41.85 51.6 43.35 51.6 44.15 51.15 44.75 50.75 45.4 50.1 45.55 49.35 45.75 48.75 45.45 48.25 45.2 48.1 44.7 47.9 43.9 48.5 43.7 48.8 43.55 49.15 43.9 49.25 44.05 49.45 43.95 49.6 43.85 49.5 43.65 49.1 43 48.35 43.25 47.9 43.45 47.7 43.9 47.5 44.3 47.65 44.8 48 46.1 49.55 46.1
L 50.2 46
Q 51 45.8 51.55 45.05 52.05 44.35 52.05 43.35 52.05 41.7 50.65 40.5 49.5 39.5 47.7 39.05 Z"/>
</g>

<g id="FlashAICB_0_art__Clip_Group__0_Layer2_2_MEMBER_3_MEMBER_0_FILL">
<path fill="#C8732D" stroke="none" d="
M 28.6 15.25
Q 28.4 15.2 28.3 15.4 28.2 15.65 28.4 15.65 30.8 16.6 30.55 18.4 30.4 19.55 29.45 19.65 28.45 19.7 28.35 18.95 28.25 18.5 28.65 18.45 28.9 18.35 28.9 18.6 29.05 18.75 29.2 18.7 29.4 18.65 29.3 18.4 29.15 17.85 28.55 18 27.75 18.2 27.9 19 27.95 19.45 28.3 19.75 28.7 20.1 29.3 20.1
L 29.45 20.05
Q 30 20 30.45 19.6 30.9 19.15 31 18.5 31.15 17.6 30.6 16.8 30 15.8 28.6 15.25 Z"/>
</g>

<g id="FlashAICB_0_art__Clip_Group__0_Layer2_2_MEMBER_4_MEMBER_0_FILL">
<path fill="#C8732D" stroke="none" d="
M 53.1 35.75
Q 53.2 35.35 52.7 35.25 52.25 35.25 52.25 35.65 52.25 35.7 51.95 36.85 51.45 38.15 50.55 38.7 49.2 39.5 46.9 38.6 44.85 37.8 43.05 34.55 41.9 32.55 40.05 27.85 38.25 23.25 37.05 21.15 35.2 17.8 33.15 16.55 29.85 14.55 25.55 15.05 21.9 15.95 21.75 16 21.35 16.2 21.55 16.6 21.7 17 22.15 16.85 22.2 16.85 25.6 15.95 29.65 15.45 32.7 17.3 34.6 18.45 36.35 21.7 37.4 23.65 39.2 28.2 41.25 33.2 42.4 35.2 44.3 38.5 46.55 39.45 47.95 40 49.05 40 50.15 40 51 39.45 52.85 38.35 53.1 35.75 Z"/>
</g>

<g id="FlashAICB_0_art__Clip_Group__0_Layer2_2_MEMBER_5_MEMBER_0_FILL">
<path fill="#C8732D" stroke="none" d="
M 49.6 27.15
Q 53 26.1 54.8 26 58.75 25.9 61.1 28.05 62.25 29.1 62.7 30.35 62.8 30.65 63.15 30.65
L 63.25 30.65
Q 63.7 30.45 63.55 30.05 63.1 28.75 61.75 27.5 59.1 24.95 54.8 25.15 52.85 25.2 49.3 26.3 45.85 27.45 44.05 27.15 41.2 26.65 38.05 23 37.8 22.65 37.4 22.95 37.1 23.25 37.35 23.6 40.75 27.55 44 28.05 46 28.35 49.6 27.15 Z"/>
</g>

<g id="FlashAICB_0_art__Clip_Group__0_Layer2_2_MEMBER_6_MEMBER_0_MEMBER_0_FILL">
<path fill="#F5C955" stroke="none" d="
M 50.05 32.55
Q 50.25 33.6 50.75 34.3 51.65 35.8 52.45 35.35 53.25 34.9 52.3 33.35 51.85 32.65 51 31.95 50.25 31.35 50.05 31.45 49.85 31.6 50.05 32.55 Z"/>
</g>

<g id="FlashAICB_0_art__Clip_Group__0_Layer2_2_MEMBER_6_MEMBER_1_MEMBER_0_FILL">
<path fill="#F5C955" stroke="none" d="
M 55.15 34.5
Q 55.75 33.9 56.2 32.9 56.6 32.05 56.45 31.9 56.3 31.75 55.4 32.15 54.45 32.55 53.85 33.2 52.6 34.5 53.25 35.15 53.9 35.8 55.15 34.5 Z"/>
</g>

<g id="FlashAICB_0_art__Clip_Group__0_Layer2_2_MEMBER_6_MEMBER_2_MEMBER_0_FILL">
<path fill="#FCEFC8" stroke="none" d="
M 53.8 34.2
Q 53.9 33.3 53.6 32.2 53.35 31.2 53.1 31.15 52.9 31.15 52.4 32.1 51.9 33.15 51.85 34.05 51.7 36 52.65 36 53.65 36.1 53.8 34.2 Z"/>
</g>

<g id="FlashAICB_0_art__Clip_Group__0_Layer2_2_MEMBER_7_MEMBER_0_MEMBER_0_FILL">
<path fill="#F5C955" stroke="none" d="
M 66.75 29.55
Q 65.95 28.85 65.1 28.55 63.45 28 63.1 28.85 62.8 29.75 64.45 30.3 65.3 30.6 66.35 30.55 67.35 30.55 67.4 30.35 67.5 30.2 66.75 29.55 Z"/>
</g>

<g id="FlashAICB_0_art__Clip_Group__0_Layer2_2_MEMBER_7_MEMBER_1_MEMBER_0_FILL">
<path fill="#F5C955" stroke="none" d="
M 60.9 31.45
Q 60.8 32.3 61.1 33.35 61.35 34.25 61.55 34.3 61.75 34.3 62.2 33.4 62.65 32.45 62.75 31.6 62.9 29.85 61.95 29.75 61.05 29.65 60.9 31.45 Z"/>
</g>

<g id="FlashAICB_0_art__Clip_Group__0_Layer2_2_MEMBER_7_MEMBER_2_MEMBER_0_FILL">
<path fill="#FCEFC8" stroke="none" d="
M 62.45 31
Q 62.95 31.75 63.9 32.4 64.75 33.05 64.9 32.9 65.1 32.75 64.85 31.75 64.55 30.65 64.05 29.9 63 28.3 62.2 28.85 61.35 29.4 62.45 31 Z"/>
</g>

<g id="FlashAICB_0_art__Clip_Group__0_Layer2_2_MEMBER_8_MEMBER_0_MEMBER_0_FILL">
<path fill="#F5C955" stroke="none" d="
M 45.7 17.7
Q 45.55 16.85 44.95 15.95 44.4 15.15 44.2 15.2 44 15.25 43.85 16.2 43.75 17.25 43.95 18.1 44.3 19.85 45.25 19.65 46.15 19.5 45.7 17.7 Z"/>
</g>

<g id="FlashAICB_0_art__Clip_Group__0_Layer2_2_MEMBER_8_MEMBER_1_MEMBER_0_FILL">
<path fill="#F5C955" stroke="none" d="
M 40.55 21.15
Q 41.55 21.55 42.4 21.55 44.2 21.6 44.2 20.65 44.2 19.75 42.45 19.7 41.6 19.7 40.6 20.05 39.65 20.4 39.65 20.6 39.65 20.8 40.55 21.15 Z"/>
</g>

<g id="FlashAICB_0_art__Clip_Group__0_Layer2_2_MEMBER_8_MEMBER_2_MEMBER_0_FILL">
<path fill="#FCEFC8" stroke="none" d="
M 41.75 18.5
Q 42.3 19.5 43 20.1 44.5 21.3 45.1 20.55 45.75 19.8 44.3 18.6 43.6 18 42.5 17.6 41.55 17.25 41.4 17.4 41.25 17.6 41.75 18.5 Z"/>
</g>

<g id="flame_anm_11_Layer3_0_FILL">
<path fill="#FDD663" stroke="none" d="
M 34.4 -118.9
Q 34.2 -141.15 26.9 -162.1 19.5 -183.45 3.2 -198.85 -0.45 -202.4 -5.35 -202.45 -7.85 -202.45 -9.65 -200.65 -17.8 -193.1 -23.6 -183.3 -35.7 -163.15 -40.35 -140.2 -45 -117.4 -42.7 -94.25 -40.35 -71.15 -32.25 -49.25 -30.2 -43.85 -28.35 -38.35 -21.5 -17.75 -5.45 -3.9 -2.15 -1.45 1.95 -1.75 3 -2.05 3.7 -2.7 16.45 -14.05 22.05 -30.85 28.8 -51.2 31.6 -72.55 34.55 -95.6 34.4 -118.9 Z"/>
</g>

<g id="flame_anm_11_Layer0_0_FILL">
<path fill="#F9AB00" stroke="none" d="
M -25.65 -151.4
Q -26.3 -150.05 -26.85 -148.7 -27.5 -146.95 -28.1 -145.2 -26.95 -148.35 -25.65 -151.4
M 11.45 -158.25
Q 9.35 -165.05 6.65 -170.6 4.65 -172.8 2.8 -173.5 2.4 -173.8 1.95 -174 1.8 -174 1.55 -174.05 -2.05 -174.45 -4.45 -173.1 -5.1 -172.75 -6.35 -172 -6.65 -171.85 -6.9 -171.7 -9.45 -169.15 -11.95 -165.6 -20.05 -154.15 -24.65 -139.85 -28.9 -126.4 -29.85 -111.4 -31.2 -89.75 -25.45 -64.15 -25.15 -63.2 -24.85 -62.25 -23.25 -54.9 -21.95 -51.15 -19.55 -44.25 -14.7 -36.9 -12.9 -34.1 -11.05 -32.15 -10.9 -31.9 -10.75 -31.7 -7.9 -27.8 -4.15 -27 -3.45 -26.8 -2.7 -26.75 0.3 -27.65 3.25 -31.8 7.95 -38.45 11.25 -48.9 13.85 -54.4 15.75 -60.55 19.7 -73.1 20.65 -87.3 22.2 -110.05 15.75 -141.35 13.65 -151.4 11.45 -158.25 Z"/>
</g>
</defs>

<g transform="matrix( 1, 0, 0, 1, 17.8,116.25) ">
<g transform="matrix( 2.3687744140625, 0, 0, 2.3687744140625, -1206.8,396.05) ">
<use xlink:href="#diya_alone_0_Layer0_0_MEMBER_0_MEMBER_0_FILL"/>
</g>

<g transform="matrix( 2.3687744140625, 0, 0, 2.3687744140625, -1206.8,396.05) ">
<use xlink:href="#diya_alone_0_Layer0_0_MEMBER_1_MEMBER_0_FILL"/>
</g>

<g transform="matrix( 2.3687744140625, 0, 0, 2.3687744140625, -1206.8,396.05) ">
<use xlink:href="#diya_alone_0_Layer0_0_MEMBER_2_MEMBER_0_FILL"/>
</g>

<g transform="matrix( 2.3687744140625, 0, 0, 2.3687744140625, -1206.8,396.05) ">
<use xlink:href="#diya_alone_0_Layer0_0_MEMBER_3_MEMBER_0_FILL"/>
</g>

<g transform="matrix( 2.3687744140625, 0, 0, 2.3687744140625, -1206.8,396.05) ">
<use xlink:href="#diya_alone_0_Layer0_0_MEMBER_4_MEMBER_0_FILL"/>
</g>

<g transform="matrix( 2.368743896484375, 0, 0, 2.368743896484375, -1206.8,396.05) ">
<use xlink:href="#diya_alone_0_Layer0_0_MEMBER_5_MEMBER_0_MEMBER_0_FILL"/>
</g>

<g transform="matrix( 2.368743896484375, 0, 0, 2.368743896484375, -1206.8,396.05) ">
<use xlink:href="#diya_alone_0_Layer0_0_MEMBER_5_MEMBER_1_MEMBER_0_FILL"/>
</g>

<g transform="matrix( 2.368743896484375, 0, 0, 2.368743896484375, -1206.8,396.05) ">
<use xlink:href="#diya_alone_0_Layer0_0_MEMBER_5_MEMBER_2_MEMBER_0_FILL"/>
</g>

<g transform="matrix( 2.368743896484375, 0, 0, 2.368743896484375, -1206.8,396.05) ">
<use xlink:href="#diya_alone_0_Layer0_0_MEMBER_5_MEMBER_3_MEMBER_0_FILL"/>
</g>

<g transform="matrix( 2.368743896484375, 0, 0, 2.368743896484375, -1206.8,396.05) ">
<use xlink:href="#diya_alone_0_Layer0_0_MEMBER_5_MEMBER_4_MEMBER_0_FILL"/>
</g>

<g transform="matrix( 2.368743896484375, 0, 0, 2.368743896484375, -1206.8,396.05) ">
<use xlink:href="#diya_alone_0_Layer0_0_MEMBER_5_MEMBER_5_MEMBER_0_FILL"/>
</g>

<g transform="matrix( 2.368743896484375, 0, 0, 2.368743896484375, -1206.8,396.05) ">
<use xlink:href="#diya_alone_0_Layer0_0_MEMBER_5_MEMBER_6_MEMBER_0_FILL"/>
</g>

<g transform="matrix( 2.368743896484375, 0, 0, 2.368743896484375, -1206.8,396.05) ">
<use xlink:href="#diya_alone_0_Layer0_0_MEMBER_5_MEMBER_7_MEMBER_0_FILL"/>
</g>

<g transform="matrix( 2.368743896484375, 0, 0, 2.368743896484375, -1206.8,396.05) ">
<use xlink:href="#diya_alone_0_Layer0_0_MEMBER_5_MEMBER_8_MEMBER_0_FILL"/>
</g>

<g transform="matrix( 2.368743896484375, 0, 0, 2.368743896484375, -1206.8,396.05) ">
<use xlink:href="#diya_alone_0_Layer0_0_MEMBER_5_MEMBER_9_MEMBER_0_FILL"/>
</g>

<g transform="matrix( 2.368743896484375, 0, 0, 2.368743896484375, -1206.8,396.05) ">
<use xlink:href="#diya_alone_0_Layer0_0_MEMBER_5_MEMBER_10_MEMBER_0_FILL"/>
</g>

<g transform="matrix( 2.368743896484375, 0, 0, 2.368743896484375, -1206.8,396.05) ">
<use xlink:href="#diya_alone_0_Layer0_0_MEMBER_5_MEMBER_11_MEMBER_0_FILL"/>
</g>

<g transform="matrix( 2.368743896484375, 0, 0, 2.368743896484375, -1206.8,396.05) ">
<use xlink:href="#diya_alone_0_Layer0_0_MEMBER_5_MEMBER_12_MEMBER_0_FILL"/>
</g>

<g transform="matrix( 2.368743896484375, 0, 0, 2.368743896484375, -1206.8,396.05) ">
<use xlink:href="#diya_alone_0_Layer0_0_MEMBER_5_MEMBER_13_MEMBER_0_FILL"/>
</g>

<g transform="matrix( 2.368743896484375, 0, 0, 2.368743896484375, -1206.8,396.05) ">
<use xlink:href="#diya_alone_0_Layer0_0_MEMBER_5_MEMBER_14_MEMBER_0_FILL"/>
</g>

<g transform="matrix( 2.3688201904296875, 0, 0, 2.3688201904296875, 8.4,6.35) ">
<mask id="Mask_Mask_1">
<g transform="matrix( 1, 0, 0, 1, 0,0) ">
<use xlink:href="#Mask_FlashAICB_0_art__Clip_Group__0_2_MASK_0_FILL"/>
</g>
</mask>

<g mask="url(#Mask_Mask_1)">
<g transform="matrix( 1, 0, 0, 1, 0,0) ">
<use xlink:href="#FlashAICB_0_art__Clip_Group__0_Layer2_0_MEMBER_0_MEMBER_0_FILL"/>
</g>

<g transform="matrix( 1, 0, 0, 1, 0,0) ">
<use xlink:href="#FlashAICB_0_art__Clip_Group__0_Layer2_0_MEMBER_1_MEMBER_0_FILL"/>
</g>

<g transform="matrix( 1, 0, 0, 1, 0,0) ">
<use xlink:href="#FlashAICB_0_art__Clip_Group__0_Layer2_0_MEMBER_2_MEMBER_0_FILL"/>
</g>

<g transform="matrix( 1, 0, 0, 1, 0,0) ">
<use xlink:href="#FlashAICB_0_art__Clip_Group__0_Layer2_0_MEMBER_3_MEMBER_0_FILL"/>
</g>

<g transform="matrix( 1, 0, 0, 1, 0,0) ">
<use xlink:href="#FlashAICB_0_art__Clip_Group__0_Layer2_0_MEMBER_4_MEMBER_0_FILL"/>
</g>

<g transform="matrix( 1, 0, 0, 1, 0,0) ">
<use xlink:href="#FlashAICB_0_art__Clip_Group__0_Layer2_0_MEMBER_5_MEMBER_0_FILL"/>
</g>

<g transform="matrix( 1, 0, 0, 1, 0,0) ">
<use xlink:href="#FlashAICB_0_art__Clip_Group__0_Layer2_0_MEMBER_6_MEMBER_0_FILL"/>
</g>

<g transform="matrix( 1, 0, 0, 1, 0,0) ">
<use xlink:href="#FlashAICB_0_art__Clip_Group__0_Layer2_0_MEMBER_7_MEMBER_0_FILL"/>
</g>

<g transform="matrix( 1, 0, 0, 1, 0,0) ">
<use xlink:href="#FlashAICB_0_art__Clip_Group__0_Layer2_1_MEMBER_0_MEMBER_0_FILL"/>
</g>

<g transform="matrix( 1, 0, 0, 1, 0,0) ">
<use xlink:href="#FlashAICB_0_art__Clip_Group__0_Layer2_1_MEMBER_1_MEMBER_0_FILL"/>
</g>

<g transform="matrix( 1, 0, 0, 1, 0,0) ">
<use xlink:href="#FlashAICB_0_art__Clip_Group__0_Layer2_1_MEMBER_2_MEMBER_0_FILL"/>
</g>

<g transform="matrix( 1, 0, 0, 1, 0,0) ">
<use xlink:href="#FlashAICB_0_art__Clip_Group__0_Layer2_1_MEMBER_3_MEMBER_0_FILL"/>
</g>

<g transform="matrix( 1, 0, 0, 1, 0,0) ">
<use xlink:href="#FlashAICB_0_art__Clip_Group__0_Layer2_1_MEMBER_4_MEMBER_0_MEMBER_0_FILL"/>
</g>

<g transform="matrix( 1, 0, 0, 1, 0,0) ">
<use xlink:href="#FlashAICB_0_art__Clip_Group__0_Layer2_1_MEMBER_4_MEMBER_1_MEMBER_0_FILL"/>
</g>

<g transform="matrix( 1, 0, 0, 1, 0,0) ">
<use xlink:href="#FlashAICB_0_art__Clip_Group__0_Layer2_1_MEMBER_4_MEMBER_2_MEMBER_0_FILL"/>
</g>

<g transform="matrix( 1, 0, 0, 1, 0,0) ">
<use xlink:href="#FlashAICB_0_art__Clip_Group__0_Layer2_1_MEMBER_5_MEMBER_0_MEMBER_0_FILL"/>
</g>

<g transform="matrix( 1, 0, 0, 1, 0,0) ">
<use xlink:href="#FlashAICB_0_art__Clip_Group__0_Layer2_1_MEMBER_5_MEMBER_1_MEMBER_0_FILL"/>
</g>

<g transform="matrix( 1, 0, 0, 1, 0,0) ">
<use xlink:href="#FlashAICB_0_art__Clip_Group__0_Layer2_1_MEMBER_5_MEMBER_2_MEMBER_0_FILL"/>
</g>

<g transform="matrix( 1, 0, 0, 1, 0,0) ">
<use xlink:href="#FlashAICB_0_art__Clip_Group__0_Layer2_1_MEMBER_6_MEMBER_0_MEMBER_0_FILL"/>
</g>

<g transform="matrix( 1, 0, 0, 1, 0,0) ">
<use xlink:href="#FlashAICB_0_art__Clip_Group__0_Layer2_1_MEMBER_6_MEMBER_1_MEMBER_0_FILL"/>
</g>

<g transform="matrix( 1, 0, 0, 1, 0,0) ">
<use xlink:href="#FlashAICB_0_art__Clip_Group__0_Layer2_1_MEMBER_6_MEMBER_2_MEMBER_0_FILL"/>
</g>

<g transform="matrix( 1, 0, 0, 1, 0,0) ">
<use xlink:href="#FlashAICB_0_art__Clip_Group__0_Layer2_2_MEMBER_0_MEMBER_0_FILL"/>
</g>

<g transform="matrix( 1, 0, 0, 1, 0,0) ">
<use xlink:href="#FlashAICB_0_art__Clip_Group__0_Layer2_2_MEMBER_1_MEMBER_0_FILL"/>
</g>

<g transform="matrix( 1, 0, 0, 1, 0,0) ">
<use xlink:href="#FlashAICB_0_art__Clip_Group__0_Layer2_2_MEMBER_2_MEMBER_0_FILL"/>
</g>

<g transform="matrix( 1, 0, 0, 1, 0,0) ">
<use xlink:href="#FlashAICB_0_art__Clip_Group__0_Layer2_2_MEMBER_3_MEMBER_0_FILL"/>
</g>

<g transform="matrix( 1, 0, 0, 1, 0,0) ">
<use xlink:href="#FlashAICB_0_art__Clip_Group__0_Layer2_2_MEMBER_4_MEMBER_0_FILL"/>
</g>

<g transform="matrix( 1, 0, 0, 1, 0,0) ">
<use xlink:href="#FlashAICB_0_art__Clip_Group__0_Layer2_2_MEMBER_5_MEMBER_0_FILL"/>
</g>

<g transform="matrix( 1, 0, 0, 1, 0,0) ">
<use xlink:href="#FlashAICB_0_art__Clip_Group__0_Layer2_2_MEMBER_6_MEMBER_0_MEMBER_0_FILL"/>
</g>

<g transform="matrix( 1, 0, 0, 1, 0,0) ">
<use xlink:href="#FlashAICB_0_art__Clip_Group__0_Layer2_2_MEMBER_6_MEMBER_1_MEMBER_0_FILL"/>
</g>

<g transform="matrix( 1, 0, 0, 1, 0,0) ">
<use xlink:href="#FlashAICB_0_art__Clip_Group__0_Layer2_2_MEMBER_6_MEMBER_2_MEMBER_0_FILL"/>
</g>

<g transform="matrix( 1, 0, 0, 1, 0,0) ">
<use xlink:href="#FlashAICB_0_art__Clip_Group__0_Layer2_2_MEMBER_7_MEMBER_0_MEMBER_0_FILL"/>
</g>

<g transform="matrix( 1, 0, 0, 1, 0,0) ">
<use xlink:href="#FlashAICB_0_art__Clip_Group__0_Layer2_2_MEMBER_7_MEMBER_1_MEMBER_0_FILL"/>
</g>

<g transform="matrix( 1, 0, 0, 1, 0,0) ">
<use xlink:href="#FlashAICB_0_art__Clip_Group__0_Layer2_2_MEMBER_7_MEMBER_2_MEMBER_0_FILL"/>
</g>

<g transform="matrix( 1, 0, 0, 1, 0,0) ">
<use xlink:href="#FlashAICB_0_art__Clip_Group__0_Layer2_2_MEMBER_8_MEMBER_0_MEMBER_0_FILL"/>
</g>

<g transform="matrix( 1, 0, 0, 1, 0,0) ">
<use xlink:href="#FlashAICB_0_art__Clip_Group__0_Layer2_2_MEMBER_8_MEMBER_1_MEMBER_0_FILL"/>
</g>

<g transform="matrix( 1, 0, 0, 1, 0,0) ">
<use xlink:href="#FlashAICB_0_art__Clip_Group__0_Layer2_2_MEMBER_8_MEMBER_2_MEMBER_0_FILL"/>
</g>
</g>
</g>
</g>

<g transform="matrix( 0.39996337890625, 0, 0, 0.39996337890625, 22.4,129.15) ">
<g transform="matrix( 1, 0, 0, 1, 0,0) ">
<use xlink:href="#flame_anm_11_Layer3_0_FILL"/>
</g>

<g transform="matrix( 1, 0, 0, 1, 0,0) ">
<use xlink:href="#flame_anm_11_Layer0_0_FILL"/>
</g>
</g>
</svg>
